<svg width="178" height="103" xmlns="http://www.w3.org/2000/svg">
 <g id="Layer_1">
  <title>Layer 1</title>
  <text font-weight="bold" xml:space="preserve" text-anchor="start" font-family="'Quicksand'" font-size="40" id="svg_1" y="41.4" x="17.99999" stroke-width="0" stroke="#000" fill="#B1FFFF">jk</text>
  <text font-weight="bold" xml:space="preserve" text-anchor="start" font-family="'Exo'" font-size="39" id="svg_3" y="69.4" x="31.99999" stroke-width="0" stroke="#000" fill="#FFAAB8">M  ViEs</text>
  <path id="svg_4" d="m168.97533,81.23197c-0.93583,0.93322 -4.96598,2.11687 -5.48578,2.11687l-4.4178,0c-0.7332,0 -1.8374,0.12917 -2.3572,0.42531c0.05971,0.04745 0.11943,0.0949 0.17718,0.14323c0.39939,0.33304 1.33327,0.80228 2.15946,0.80228c0.38863,0 0.70775,-0.10105 0.9789,-0.31107c1.15315,-0.88489 1.75224,-0.98858 2.09975,-0.98858c0.41212,0 0.76648,0.1696 0.97499,0.46661c0.39156,0.55009 0.10376,1.26977 -0.18991,1.83392c-0.70285,1.33919 -2.99349,2.78647 -5.47697,2.78647c-0.00196,0 -0.00196,0 -0.00392,0c-0.34653,0 -0.68621,-0.029 -1.01121,-0.08699l0,2.85677c0,0.65202 1.01121,2.22584 4.0791,2.22584s3.87157,-3.2522 3.87157,-3.81195l0,-3.96485c2.18296,-1.02724 4.41682,-1.58612 5.48578,-3.42267c1.00534,-1.72584 0.0509,-2.00439 -0.88395,-1.07118zm-6.86212,4.1529c0.77921,-1.49297 -0.05188,-1.49297 -1.50751,-0.37346s-3.58769,0.09227 -4.31501,-0.51406c-0.72733,-0.60545 -1.45465,-1.07206 -2.75464,-1.02548c-1.29999,0.04657 -4.36591,-0.14148 -6.1348,-0.51406c-1.76692,-0.37346 -4.79174,-2.6362 -5.04136,-2.05185c-0.26039,0.60633 0.20655,1.02636 1.14336,2.05185c0.93485,1.02724 4.96794,2.44113 4.96794,2.44113s0,3.03427 0,4.2935c0,1.26098 2.91028,3.17223 4.41682,3.17223s2.65087,-0.93322 2.65087,-1.587l0,-3.96485c2.49523,1.16872 5.79512,-0.43409 6.57432,-1.92794zm-1.56625,-3.33128c1.70721,0 3.09236,-1.24253 3.09236,-2.77504c0,-1.53339 -1.38515,-2.77592 -3.09236,-2.77592s-3.09138,1.24253 -3.09138,2.77592c0,1.53251 1.38417,2.77504 3.09138,2.77504zm-8.14742,0c1.70721,0 3.09138,-1.24253 3.09138,-2.77504c0,-1.53339 -1.38417,-2.77592 -3.09138,-2.77592c-1.70819,0 -3.09236,1.24253 -3.09236,2.77592c0,1.53251 1.38319,2.77504 3.09236,2.77504z" stroke-width="0" stroke="#000" fill="#B8874D"/>
  <path stroke="#000" id="svg_5" d="m157.27033,92.84251c0.03342,0.0549 0.17736,0.12452 0.19592,0.12452l0.15778,0c0.02619,0 0.06562,0.0076 0.08419,0.02502c-0.00213,0.00279 -0.00427,0.00558 -0.00633,0.00843c-0.01426,0.01959 -0.04762,0.04719 -0.07712,0.04719c-0.01388,0 -0.02528,-0.00594 -0.03496,-0.0183c-0.04118,-0.05205 -0.06258,-0.05815 -0.07499,-0.05815c-0.01472,0 -0.02737,0.00998 -0.03482,0.02745c-0.01398,0.03236 -0.00371,0.07469 0.00678,0.10788c0.0251,0.07878 0.10691,0.16391 0.19561,0.16391c0.00007,0 0.00007,0 0.00014,0c0.01238,0 0.02451,-0.00171 0.03611,-0.00512l0,0.16805c0,0.03835 -0.03611,0.13093 -0.14568,0.13093s-0.13827,-0.19131 -0.13827,-0.22423l0,-0.23323c-0.07796,-0.06043 -0.15774,-0.0933 -0.19592,-0.20133c-0.0359,-0.10152 -0.00182,-0.11791 0.03157,-0.06301zm0.24508,0.24429c-0.02783,-0.08782 0.00185,-0.08782 0.05384,-0.02197s0.12813,0.00543 0.15411,-0.03024c0.02598,-0.03561 0.05195,-0.06306 0.09838,-0.06032c0.04643,0.00274 0.15593,-0.00832 0.2191,-0.03024c0.0631,-0.02197 0.17113,-0.15507 0.18005,-0.1207c0.0093,0.03567 -0.00738,0.06037 -0.04083,0.1207c-0.03339,0.06043 -0.17743,0.1436 -0.17743,0.1436s0,0.17849 0,0.25256c0,0.07418 -0.10394,0.1866 -0.15774,0.1866s-0.09467,-0.0549 -0.09467,-0.09335l0,-0.23323c-0.08912,0.06875 -0.20697,-0.02553 -0.2348,-0.11341zm0.05594,-0.19596c-0.06097,0 -0.11044,-0.07309 -0.11044,-0.16324c0,-0.0902 0.04947,-0.16329 0.11044,-0.16329s0.11041,0.07309 0.11041,0.16329c0,0.09015 -0.04943,0.16324 -0.11041,0.16324zm0.29098,0c-0.06097,0 -0.11041,-0.07309 -0.11041,-0.16324c0,-0.0902 0.04943,-0.16329 0.11041,-0.16329c0.06101,0 0.11044,0.07309 0.11044,0.16329c0,0.09015 -0.0494,0.16324 -0.11044,0.16324z" stroke-width="0" fill="#B1FFFF"/>
  <path id="svg_9" d="m75.67399,45.83471c-0.44561,0 -0.88414,0.02964 -1.3156,0.08509l-0.03183,-0.17208c-0.01857,-0.09943 -0.05305,-0.18929 -0.09902,-0.27055c0.33686,-0.29446 0.55259,-0.74379 0.55259,-1.24857c0,-0.88623 -0.66399,-1.60421 -1.48358,-1.60421s-1.48358,0.71797 -1.48358,1.60421c0,0.71224 0.42881,1.31549 1.02295,1.52486c-0.01857,0.10038 -0.01857,0.2065 0,0.31358l0.02918,0.15966c-4.71422,1.34321 -8.19154,5.98375 -8.19154,11.50382c0,6.56883 4.92553,11.89388 11.00044,11.89388c6.07491,0 10.99956,-5.32505 10.99956,-11.89388c0.00088,-6.56979 -4.92465,-11.89579 -10.99956,-11.89579zm0.19009,2.83461c3.93883,0 7.2349,2.97897 8.06599,6.96654l-0.50926,0.22371c-0.13085,-0.65105 -0.66752,-1.13862 -1.30852,-1.13862c-0.74002,0 -1.34035,0.64914 -1.34035,1.44933c0,0.0717 0.00707,0.14149 0.01591,0.21128l-2.44995,-0.02677c-0.04774,-0.10994 -0.10079,-0.21606 -0.16091,-0.31836l3.00518,-4.88528l0.04863,-0.07935l-4.2138,3.8805c-0.31122,-0.1501 -0.65426,-0.23709 -1.01499,-0.24474l0.07604,-0.01721l-1.04063,-2.47132c0.56585,-0.16922 0.98228,-0.72945 0.98228,-1.39484c0,-0.80019 -0.59945,-1.44837 -1.34035,-1.44837c-0.06631,0 -0.12997,0.00669 -0.19363,0.01721l0.05128,-0.60612c0.43234,-0.07839 0.8753,-0.11759 1.32709,-0.11759zm-3.73371,-4.44073c0,-0.69503 0.52253,-1.26004 1.16529,-1.26004c0.64277,0 1.16529,0.56501 1.16529,1.26004c0,0.40631 -0.17948,0.76673 -0.45622,0.99713c-0.1618,-0.11759 -0.36515,-0.16826 -0.57204,-0.12428c-0.19982,0.04302 -0.36515,0.16635 -0.47301,0.33365c-0.4792,-0.15679 -0.82932,-0.63862 -0.82932,-1.2065zm-4.53474,13.38145c0,-4.24761 2.73906,-7.80401 6.41177,-8.7151l0.26259,0.5478c-0.53932,0.18738 -0.92923,0.73423 -0.92923,1.37858c0,0.80019 0.59945,1.44933 1.33947,1.44933c0.06012,0 0.11936,-0.00574 0.17683,-0.01434l-0.05128,2.71989l0.04598,-0.01052c-0.39079,0.19503 -0.72853,0.49044 -0.9867,0.85564l0.08222,-0.14054l-1.39163,-0.57648l1.03621,1.18451l0.02299,-0.04015c-0.16799,0.35468 -0.27055,0.75335 -0.28646,1.17495l-0.00265,-0.0153l-2.31909,1.15583c-0.17594,-0.57744 -0.67813,-0.99522 -1.27139,-0.99522c-0.74002,0 -1.34035,0.64818 -1.34035,1.44933c0,0.06119 0.00442,0.12237 0.01149,0.1826l-0.69228,-0.07266c-0.0778,-0.49331 -0.11847,-1 -0.11847,-1.51816zm8.26846,8.94168c-3.91585,0 -7.19511,-2.94264 -8.05096,-6.89388l0.61094,-0.33748c0.12908,0.65583 0.66576,1.14723 1.31029,1.14723c0.74002,0 1.33947,-0.64914 1.33947,-1.44933c0,-0.10038 -0.00973,-0.1979 -0.02741,-0.2935l2.52687,0.02868c0.03979,0.09082 0.08488,0.17878 0.13262,0.26386l-3.05028,5.04493l0.2007,-0.18642l4.00426,-3.74761c0.29707,0.14627 0.62332,0.23709 0.96725,0.2543l-0.0168,0.00382l1.08395,2.51147c-0.57911,0.1587 -1.00969,0.72658 -1.00969,1.40344c0,0.80019 0.59945,1.44837 1.34035,1.44837c0.06719,0 0.1335,-0.00669 0.19893,-0.01721l0.00354,0.65774c-0.50573,0.10516 -1.02825,0.16157 -1.56404,0.16157zm2.02733,-0.27151l-0.34393,-0.57361c0.58442,-0.15679 1.01853,-0.72562 1.01853,-1.40535c0,-0.80019 -0.60121,-1.44933 -1.34035,-1.44933c-0.05835,0 -0.11494,0.00478 -0.17064,0.01338l0,-2.73423l-0.0221,0.00382c0.36161,-0.17686 0.68079,-0.43881 0.93277,-0.76291l1.34035,0.63002l-0.97609,-1.24665c0.13969,-0.32027 0.22634,-0.67304 0.24579,-1.04685l2.25632,-1.11281c0.16799,0.59082 0.67725,1.02103 1.27935,1.02103c0.74091,0 1.34035,-0.64914 1.34035,-1.44933c0,-0.06597 -0.0053,-0.13098 -0.01415,-0.19503l0.57469,0.11472c0.07869,0.49426 0.12024,1.00287 0.12024,1.52103c0.00088,4.18356 -2.65418,7.69503 -6.24113,8.67208z" stroke-width="0" stroke="#000" fill="#FFE7A2"/>
  <path stroke="#000" id="svg_10" d="m77.25298,70.72569c-0.02025,0 -0.04019,0.00988 -0.0598,0.02836l-0.00145,-0.05736c-0.00084,-0.03314 -0.00241,-0.0631 -0.0045,-0.09018c0.01531,-0.09815 0.02512,-0.24793 0.02512,-0.41619c0,-0.29541 -0.03018,-0.53474 -0.06744,-0.53474s-0.06744,0.23932 -0.06744,0.53474c0,0.23741 0.01949,0.4385 0.0465,0.50829c-0.00084,0.03346 -0.00084,0.06883 0,0.10453l0.00133,0.05322c-0.21428,0.44774 -0.37234,1.99458 -0.37234,3.83461c0,2.18961 0.22389,3.96463 0.50002,3.96463c0.27613,0 0.49998,-1.77502 0.49998,-3.96463c0.00004,-2.18993 -0.22385,-3.96526 -0.49998,-3.96526zm0.00864,0.94487c0.17904,0 0.32886,0.99299 0.36664,2.32218l-0.02315,0.07457c-0.00595,-0.21702 -0.03034,-0.37954 -0.05948,-0.37954c-0.03364,0 -0.06093,0.21638 -0.06093,0.48311c0,0.0239 0.00032,0.04716 0.00072,0.07043l-0.11136,-0.00892c-0.00217,-0.03665 -0.00458,-0.07202 -0.00731,-0.10612l0.1366,-1.62843l0.00221,-0.02645l-0.19154,1.2935c-0.01415,-0.05003 -0.02974,-0.07903 -0.04614,-0.08158l0.00346,-0.00574l-0.0473,-0.82377c0.02572,-0.05641 0.04465,-0.24315 0.04465,-0.46495c0,-0.26673 -0.02725,-0.48279 -0.06093,-0.48279c-0.00301,0 -0.00591,0.00223 -0.0088,0.00574l0.00233,-0.20204c0.01965,-0.02613 0.03979,-0.0392 0.06032,-0.0392zm-0.16971,-1.48024c0,-0.23168 0.02375,-0.42001 0.05297,-0.42001c0.02922,0 0.05297,0.18834 0.05297,0.42001c0,0.13544 -0.00816,0.25558 -0.02074,0.33238c-0.00735,-0.0392 -0.0166,-0.05609 -0.026,-0.04143c-0.00908,0.01434 -0.0166,0.05545 -0.0215,0.11122c-0.02178,-0.05226 -0.0377,-0.21287 -0.0377,-0.40217zm-0.20612,4.46048c0,-1.41587 0.1245,-2.60134 0.29144,-2.90503l0.01194,0.1826c-0.02451,0.06246 -0.04224,0.24474 -0.04224,0.45953c0,0.26673 0.02725,0.48311 0.06088,0.48311c0.00273,0 0.00543,-0.00191 0.00804,-0.00478l-0.00233,0.90663l0.00209,-0.00351c-0.01776,0.06501 -0.03311,0.16348 -0.04485,0.28521l0.00374,-0.04685l-0.06326,-0.19216l0.0471,0.39484l0.00104,-0.01338c-0.00764,0.11823 -0.0123,0.25112 -0.01302,0.39165l-0.00012,-0.0051l-0.10541,0.38528c-0.008,-0.19248 -0.03082,-0.33174 -0.05779,-0.33174c-0.03364,0 -0.06093,0.21606 -0.06093,0.48311c0,0.0204 0.0002,0.04079 0.00052,0.06087l-0.03147,-0.02422c-0.00354,-0.16444 -0.00539,-0.33333 -0.00539,-0.50605zm0.37584,2.98056c-0.17799,0 -0.32705,-0.98088 -0.36595,-2.29796l0.02777,-0.11249c0.00587,0.21861 0.03026,0.38241 0.05956,0.38241c0.03364,0 0.06088,-0.21638 0.06088,-0.48311c0,-0.03346 -0.00044,-0.06597 -0.00125,-0.09783l0.11486,0.00956c0.00181,0.03027 0.00386,0.05959 0.00603,0.08795l-0.13865,1.68164l0.00912,-0.06214l0.18201,-1.2492c0.0135,0.04876 0.02833,0.07903 0.04397,0.08477l-0.00076,0.00127l0.04927,0.83716c-0.02632,0.0529 -0.04589,0.24219 -0.04589,0.46781c0,0.26673 0.02725,0.48279 0.06093,0.48279c0.00305,0 0.00607,-0.00223 0.00904,-0.00574l0.00016,0.21925c-0.02299,0.03505 -0.04674,0.05386 -0.07109,0.05386zm0.09215,-0.0905l-0.01563,-0.1912c0.02656,-0.05226 0.0463,-0.24187 0.0463,-0.46845c0,-0.26673 -0.02733,-0.48311 -0.06093,-0.48311c-0.00265,0 -0.00522,0.00159 -0.00776,0.00446l0,-0.91141l-0.001,0.00127c0.01644,-0.05895 0.03094,-0.14627 0.0424,-0.2543l0.06093,0.21001l-0.04437,-0.41555c0.00635,-0.10676 0.01029,-0.22435 0.01117,-0.34895l0.10256,-0.37094c0.00764,0.19694 0.03078,0.34034 0.05815,0.34034c0.03368,0 0.06093,-0.21638 0.06093,-0.48311c0,-0.02199 -0.00024,-0.04366 -0.00064,-0.06501l0.02612,0.03824c0.00358,0.16475 0.00547,0.33429 0.00547,0.50701c0.00004,1.39452 -0.12064,2.56501 -0.28369,2.89069z" stroke-width="0" fill="#FFAAB8"/>
 </g>

</svg>